[img]http://img340.imageshack.us/img340/9215/posterff.jpg[/img]


[b][i]Aka: Sun cheung sau
Year: 2009
Directed: Dante Lam
Genre: Action/Adventure/Thriller
Runtime: 87 Min
Country: Hong Kong
Language: Cantonese
Subtitles: English/Chinese
Cast: Richie Ren, Xiaoming Huang, Edison Chen, Bowie Lam, Kai Chi Liu
Imdb: [url]http://www.imdb.com/title/tt1194624[/url]

Synopsis / Plot / Review

Sharpshooter Hartman (Richie Jen) runs a tight ship as head of the SDU sniper team, but hotshot rookie OJ (Edison Chen) keeps questioning his authority and training regiment and even takes pointers from Hartman's rival, former top sniper Lincoln (Huang Xiaoming). An arrogant ace whose shooting skills surpassed Hartman, Lincoln has just been released from prison after serving time for accidentally shooting a hostage, and he wants revenge. In a blatant challenge to Hartman and the police, Lincoln helps crime boss Tao (Jack Kao) escape from custody, paving the way for a deadly showdown between the snipers.

General Info:
Complete name : The.Sniper.2009.DVDRip.H264.AAC-D34dLy.mp4
Format : MPEG-4
Format profile : Base Media
Codec ID : isom
File size : 350 MiB
Duration : 1h 26mn
Overall bit rate : 565 Kbps
Encoded date : UTC 2010-05-14 22:25:47
Tagged date : UTC 2010-05-14 22:25:47

Video Info:
ID : 1
Format : AVC
Format/Info : Advanced Video Codec
Format profile : High@L2.1
Format settings, CABAC : Yes
Format settings, ReFrames : 3 frames
Codec ID : avc1
Codec ID/Info : Advanced Video Coding
Duration : 1h 26mn
Bit rate mode : Variable
Bit rate : 504 Kbps
Maximum bit rate : 4 697 Kbps
Width : 640 pixels
Height : 256 pixels
Display aspect ratio : 2.500
Frame rate mode : Constant
Frame rate : 23.976 fps
Resolution : 8 bits
Colorimetry : 4:2:0
Scan type : Progressive
Bits/(Pixel*Frame) : 0.128
Stream size : 311 MiB (89%)
Title : Imported with GPAC 0.4.6-DEV (build 1)
Writing library : x264 core 80 r1376M 3feaec2
Encoding settings : cabac=1 / ref=3 / deblock=1:-2:-1 / analyse=0x3:0x113 / me=umh / subme=5 / psy=1 / psy_rd=0.0:0.0 / mixed_ref=1 / me_range=12 / chroma_me=1 / trellis=1 / 8x8dct=1 / cqm=0 / deadzone=21,11 / fast_pskip=1 / chroma_qp_offset=0 / threads=3 / sliced_threads=0 / nr=0 / decimate=1 / mbaff=0 / constrained_intra=0 / bframes=16 / b_pyramid=0 / b_adapt=1 / b_bias=0 / direct=3 / wpredb=1 / wpredp=2 / keyint=250 / keyint_min=25 / scenecut=40 / rc_lookahead=40 / rc=2pass / mbtree=1 / bitrate=504 / ratetol=1.0 / qcomp=0.60 / qpmin=10 / qpmax=51 / qpstep=4 / cplxblur=20.0 / qblur=0.5 / ip_ratio=1.40 / aq=2:1.00
Encoded date : UTC 2010-05-14 22:25:47
Tagged date : UTC 2010-05-14 22:26:29

Audio Info:
ID : 2
Format : AAC
Format/Info : Advanced Audio Codec
Format version : Version 4
Format profile : LC
Format settings, SBR : Yes
Format settings, PS : No
Codec ID : 40
Duration : 1h 26mn
Bit rate mode : Variable
Bit rate : 59.9 Kbps
Maximum bit rate : 112 Kbps
Channel(s) : 2 channels
Channel positions : Front: L R
Sampling rate : 48.0 KHz
Stream size : 37.0 MiB (11%)
Encoded date : UTC 2010-05-14 22:26:26
Tagged date : UTC 2010-05-14 22:26:29

Screenshots:[/i][/b]

[img]http://img338.imageshack.us/img338/6971/28989254.jpg[/img]

[img]http://img94.imageshack.us/img94/1150/10893468.jpg[/img]

[img]http://img17.imageshack.us/img17/4811/29182795.jpg[/img]

[img]http://img21.imageshack.us/img21/4849/99094246.jpg[/img]

[img]http://img293.imageshack.us/img293/7473/27540602.jpg[/img]

[img]http://img42.imageshack.us/img42/148/thesniper2009dvdriph264.jpg[/img]